<mxfile host="app.diagrams.net" agent="Mozilla/5.0 (Macintosh; Intel Mac OS X 10_15_7) AppleWebKit/537.36 (KHTML, like Gecko) Chrome/127.0.0.0 Safari/537.36" version="24.7.7">
  <diagram id="R2lEEEUBdFMjLlhIrx00" name="Page-1">
    <mxGraphModel dx="1393" dy="344" grid="1" gridSize="10" guides="1" tooltips="1" connect="1" arrows="1" fold="1" page="1" pageScale="1" pageWidth="850" pageHeight="1100" math="0" shadow="0" extFonts="Permanent Marker^https://fonts.googleapis.com/css?family=Permanent+Marker">
      <root>
        <mxCell id="0" />
        <mxCell id="1" parent="0" />
        <mxCell id="le42ke26sphdWWmwivsr-32" style="edgeStyle=orthogonalEdgeStyle;rounded=0;orthogonalLoop=1;jettySize=auto;html=1;entryX=0;entryY=0.5;entryDx=0;entryDy=0;" edge="1" parent="1" source="le42ke26sphdWWmwivsr-1" target="le42ke26sphdWWmwivsr-31">
          <mxGeometry relative="1" as="geometry" />
        </mxCell>
        <mxCell id="le42ke26sphdWWmwivsr-1" value="Web App UI" style="rounded=1;whiteSpace=wrap;html=1;" vertex="1" parent="1">
          <mxGeometry x="460" y="210" width="120" height="60" as="geometry" />
        </mxCell>
        <mxCell id="le42ke26sphdWWmwivsr-33" style="edgeStyle=orthogonalEdgeStyle;rounded=0;orthogonalLoop=1;jettySize=auto;html=1;entryX=0;entryY=0.5;entryDx=0;entryDy=0;" edge="1" parent="1" source="le42ke26sphdWWmwivsr-2" target="le42ke26sphdWWmwivsr-31">
          <mxGeometry relative="1" as="geometry" />
        </mxCell>
        <mxCell id="le42ke26sphdWWmwivsr-2" value="Apple watch" style="rounded=1;whiteSpace=wrap;html=1;" vertex="1" parent="1">
          <mxGeometry x="460" y="420" width="120" height="60" as="geometry" />
        </mxCell>
        <mxCell id="le42ke26sphdWWmwivsr-6" style="edgeStyle=orthogonalEdgeStyle;rounded=0;orthogonalLoop=1;jettySize=auto;html=1;entryX=0;entryY=0.5;entryDx=0;entryDy=0;" edge="1" parent="1" source="le42ke26sphdWWmwivsr-3" target="le42ke26sphdWWmwivsr-1">
          <mxGeometry relative="1" as="geometry" />
        </mxCell>
        <mxCell id="le42ke26sphdWWmwivsr-7" style="edgeStyle=orthogonalEdgeStyle;rounded=0;orthogonalLoop=1;jettySize=auto;html=1;entryX=0;entryY=0.5;entryDx=0;entryDy=0;" edge="1" parent="1" source="le42ke26sphdWWmwivsr-3" target="le42ke26sphdWWmwivsr-2">
          <mxGeometry relative="1" as="geometry" />
        </mxCell>
        <mxCell id="le42ke26sphdWWmwivsr-3" value="User enters data" style="shape=umlActor;verticalLabelPosition=bottom;verticalAlign=top;html=1;outlineConnect=0;" vertex="1" parent="1">
          <mxGeometry x="260" y="320" width="30" height="60" as="geometry" />
        </mxCell>
        <mxCell id="le42ke26sphdWWmwivsr-18" value="Food log csv" style="swimlane;fontStyle=0;childLayout=stackLayout;horizontal=1;startSize=30;horizontalStack=0;resizeParent=1;resizeParentMax=0;resizeLast=0;collapsible=1;marginBottom=0;whiteSpace=wrap;html=1;" vertex="1" parent="1">
          <mxGeometry x="640" y="496" width="140" height="120" as="geometry" />
        </mxCell>
        <mxCell id="le42ke26sphdWWmwivsr-19" value="Dish/Item" style="text;strokeColor=none;fillColor=none;align=left;verticalAlign=middle;spacingLeft=4;spacingRight=4;overflow=hidden;points=[[0,0.5],[1,0.5]];portConstraint=eastwest;rotatable=0;whiteSpace=wrap;html=1;" vertex="1" parent="le42ke26sphdWWmwivsr-18">
          <mxGeometry y="30" width="140" height="30" as="geometry" />
        </mxCell>
        <mxCell id="le42ke26sphdWWmwivsr-20" value="Date and time" style="text;strokeColor=none;fillColor=none;align=left;verticalAlign=middle;spacingLeft=4;spacingRight=4;overflow=hidden;points=[[0,0.5],[1,0.5]];portConstraint=eastwest;rotatable=0;whiteSpace=wrap;html=1;" vertex="1" parent="le42ke26sphdWWmwivsr-18">
          <mxGeometry y="60" width="140" height="30" as="geometry" />
        </mxCell>
        <mxCell id="le42ke26sphdWWmwivsr-21" value="Meal of the day" style="text;strokeColor=none;fillColor=none;align=left;verticalAlign=middle;spacingLeft=4;spacingRight=4;overflow=hidden;points=[[0,0.5],[1,0.5]];portConstraint=eastwest;rotatable=0;whiteSpace=wrap;html=1;" vertex="1" parent="le42ke26sphdWWmwivsr-18">
          <mxGeometry y="90" width="140" height="30" as="geometry" />
        </mxCell>
        <mxCell id="le42ke26sphdWWmwivsr-22" value="Daily log" style="swimlane;fontStyle=0;childLayout=stackLayout;horizontal=1;startSize=30;horizontalStack=0;resizeParent=1;resizeParentMax=0;resizeLast=0;collapsible=1;marginBottom=0;whiteSpace=wrap;html=1;" vertex="1" parent="1">
          <mxGeometry x="849" y="498" width="140" height="90" as="geometry" />
        </mxCell>
        <mxCell id="le42ke26sphdWWmwivsr-23" value="log item" style="text;strokeColor=none;fillColor=none;align=left;verticalAlign=middle;spacingLeft=4;spacingRight=4;overflow=hidden;points=[[0,0.5],[1,0.5]];portConstraint=eastwest;rotatable=0;whiteSpace=wrap;html=1;" vertex="1" parent="le42ke26sphdWWmwivsr-22">
          <mxGeometry y="30" width="140" height="30" as="geometry" />
        </mxCell>
        <mxCell id="le42ke26sphdWWmwivsr-24" value="Date and time" style="text;strokeColor=none;fillColor=none;align=left;verticalAlign=middle;spacingLeft=4;spacingRight=4;overflow=hidden;points=[[0,0.5],[1,0.5]];portConstraint=eastwest;rotatable=0;whiteSpace=wrap;html=1;" vertex="1" parent="le42ke26sphdWWmwivsr-22">
          <mxGeometry y="60" width="140" height="30" as="geometry" />
        </mxCell>
        <mxCell id="le42ke26sphdWWmwivsr-26" value="To-Do list" style="swimlane;fontStyle=0;childLayout=stackLayout;horizontal=1;startSize=30;horizontalStack=0;resizeParent=1;resizeParentMax=0;resizeLast=0;collapsible=1;marginBottom=0;whiteSpace=wrap;html=1;" vertex="1" parent="1">
          <mxGeometry x="1051" y="496" width="140" height="120" as="geometry" />
        </mxCell>
        <mxCell id="le42ke26sphdWWmwivsr-27" value="item" style="text;strokeColor=none;fillColor=none;align=left;verticalAlign=middle;spacingLeft=4;spacingRight=4;overflow=hidden;points=[[0,0.5],[1,0.5]];portConstraint=eastwest;rotatable=0;whiteSpace=wrap;html=1;" vertex="1" parent="le42ke26sphdWWmwivsr-26">
          <mxGeometry y="30" width="140" height="30" as="geometry" />
        </mxCell>
        <mxCell id="le42ke26sphdWWmwivsr-28" value="Date and time" style="text;strokeColor=none;fillColor=none;align=left;verticalAlign=middle;spacingLeft=4;spacingRight=4;overflow=hidden;points=[[0,0.5],[1,0.5]];portConstraint=eastwest;rotatable=0;whiteSpace=wrap;html=1;" vertex="1" parent="le42ke26sphdWWmwivsr-26">
          <mxGeometry y="60" width="140" height="30" as="geometry" />
        </mxCell>
        <mxCell id="le42ke26sphdWWmwivsr-29" value="Location" style="text;strokeColor=none;fillColor=none;align=left;verticalAlign=middle;spacingLeft=4;spacingRight=4;overflow=hidden;points=[[0,0.5],[1,0.5]];portConstraint=eastwest;rotatable=0;whiteSpace=wrap;html=1;" vertex="1" parent="le42ke26sphdWWmwivsr-26">
          <mxGeometry y="90" width="140" height="30" as="geometry" />
        </mxCell>
        <mxCell id="le42ke26sphdWWmwivsr-30" value="&lt;font style=&quot;font-size: 40px;&quot;&gt;Data collection phase&lt;/font&gt;" style="text;html=1;align=center;verticalAlign=middle;resizable=0;points=[];autosize=1;strokeColor=none;fillColor=none;" vertex="1" parent="1">
          <mxGeometry x="330" y="710" width="410" height="60" as="geometry" />
        </mxCell>
        <mxCell id="le42ke26sphdWWmwivsr-36" style="edgeStyle=orthogonalEdgeStyle;rounded=0;orthogonalLoop=1;jettySize=auto;html=1;exitX=1;exitY=0.5;exitDx=0;exitDy=0;entryX=0;entryY=0.5;entryDx=0;entryDy=0;" edge="1" parent="1" source="le42ke26sphdWWmwivsr-31" target="le42ke26sphdWWmwivsr-38">
          <mxGeometry relative="1" as="geometry">
            <mxPoint x="820" y="440" as="targetPoint" />
            <Array as="points">
              <mxPoint x="860" y="340" />
            </Array>
          </mxGeometry>
        </mxCell>
        <mxCell id="le42ke26sphdWWmwivsr-31" value="food log" style="rhombus;whiteSpace=wrap;html=1;" vertex="1" parent="1">
          <mxGeometry x="670" y="300" width="80" height="80" as="geometry" />
        </mxCell>
        <mxCell id="le42ke26sphdWWmwivsr-34" style="edgeStyle=orthogonalEdgeStyle;rounded=0;orthogonalLoop=1;jettySize=auto;html=1;entryX=0.5;entryY=0;entryDx=0;entryDy=0;" edge="1" parent="1" source="le42ke26sphdWWmwivsr-31" target="le42ke26sphdWWmwivsr-18">
          <mxGeometry relative="1" as="geometry" />
        </mxCell>
        <mxCell id="le42ke26sphdWWmwivsr-35" value="Yes" style="text;html=1;align=center;verticalAlign=middle;resizable=0;points=[];autosize=1;strokeColor=none;fillColor=none;" vertex="1" parent="1">
          <mxGeometry x="670" y="418" width="40" height="30" as="geometry" />
        </mxCell>
        <mxCell id="le42ke26sphdWWmwivsr-39" style="edgeStyle=orthogonalEdgeStyle;rounded=0;orthogonalLoop=1;jettySize=auto;html=1;entryX=0.442;entryY=0.029;entryDx=0;entryDy=0;entryPerimeter=0;" edge="1" parent="1" source="le42ke26sphdWWmwivsr-38" target="le42ke26sphdWWmwivsr-22">
          <mxGeometry relative="1" as="geometry" />
        </mxCell>
        <mxCell id="le42ke26sphdWWmwivsr-44" style="edgeStyle=orthogonalEdgeStyle;rounded=0;orthogonalLoop=1;jettySize=auto;html=1;entryX=0;entryY=0.5;entryDx=0;entryDy=0;" edge="1" parent="1" source="le42ke26sphdWWmwivsr-38" target="le42ke26sphdWWmwivsr-43">
          <mxGeometry relative="1" as="geometry" />
        </mxCell>
        <mxCell id="le42ke26sphdWWmwivsr-38" value="daily log" style="rhombus;whiteSpace=wrap;html=1;" vertex="1" parent="1">
          <mxGeometry x="860" y="295" width="100" height="90" as="geometry" />
        </mxCell>
        <mxCell id="le42ke26sphdWWmwivsr-40" value="Yes" style="text;html=1;align=center;verticalAlign=middle;resizable=0;points=[];autosize=1;strokeColor=none;fillColor=none;" vertex="1" parent="1">
          <mxGeometry x="870" y="418" width="40" height="30" as="geometry" />
        </mxCell>
        <mxCell id="le42ke26sphdWWmwivsr-45" style="edgeStyle=orthogonalEdgeStyle;rounded=0;orthogonalLoop=1;jettySize=auto;html=1;entryX=0.5;entryY=0;entryDx=0;entryDy=0;" edge="1" parent="1" source="le42ke26sphdWWmwivsr-43" target="le42ke26sphdWWmwivsr-26">
          <mxGeometry relative="1" as="geometry" />
        </mxCell>
        <mxCell id="le42ke26sphdWWmwivsr-49" style="edgeStyle=orthogonalEdgeStyle;rounded=0;orthogonalLoop=1;jettySize=auto;html=1;entryX=0;entryY=0.5;entryDx=0;entryDy=0;" edge="1" parent="1" source="le42ke26sphdWWmwivsr-43" target="le42ke26sphdWWmwivsr-48">
          <mxGeometry relative="1" as="geometry" />
        </mxCell>
        <mxCell id="le42ke26sphdWWmwivsr-43" value="to-do item" style="rhombus;whiteSpace=wrap;html=1;" vertex="1" parent="1">
          <mxGeometry x="1070" y="295" width="100" height="90" as="geometry" />
        </mxCell>
        <mxCell id="le42ke26sphdWWmwivsr-47" value="Yes" style="text;html=1;align=center;verticalAlign=middle;resizable=0;points=[];autosize=1;strokeColor=none;fillColor=none;" vertex="1" parent="1">
          <mxGeometry x="1084" y="417" width="40" height="30" as="geometry" />
        </mxCell>
        <mxCell id="le42ke26sphdWWmwivsr-48" value="calendar update" style="rhombus;whiteSpace=wrap;html=1;" vertex="1" parent="1">
          <mxGeometry x="1260" y="295" width="100" height="90" as="geometry" />
        </mxCell>
        <mxCell id="le42ke26sphdWWmwivsr-50" value="API call to google calendar" style="ellipse;shape=cloud;whiteSpace=wrap;html=1;" vertex="1" parent="1">
          <mxGeometry x="1245" y="516" width="120" height="80" as="geometry" />
        </mxCell>
        <mxCell id="le42ke26sphdWWmwivsr-51" style="edgeStyle=orthogonalEdgeStyle;rounded=0;orthogonalLoop=1;jettySize=auto;html=1;exitX=0.5;exitY=1;exitDx=0;exitDy=0;entryX=0.543;entryY=0.133;entryDx=0;entryDy=0;entryPerimeter=0;" edge="1" parent="1" source="le42ke26sphdWWmwivsr-48" target="le42ke26sphdWWmwivsr-50">
          <mxGeometry relative="1" as="geometry">
            <mxPoint x="1310.0526315789475" y="384.9526315789476" as="sourcePoint" />
            <mxPoint x="1325" y="532" as="targetPoint" />
          </mxGeometry>
        </mxCell>
        <mxCell id="le42ke26sphdWWmwivsr-52" value="Food log csv" style="swimlane;fontStyle=0;childLayout=stackLayout;horizontal=1;startSize=30;horizontalStack=0;resizeParent=1;resizeParentMax=0;resizeLast=0;collapsible=1;marginBottom=0;whiteSpace=wrap;html=1;" vertex="1" parent="1">
          <mxGeometry x="460" y="1016" width="140" height="120" as="geometry" />
        </mxCell>
        <mxCell id="le42ke26sphdWWmwivsr-53" value="Dish/Item" style="text;strokeColor=none;fillColor=none;align=left;verticalAlign=middle;spacingLeft=4;spacingRight=4;overflow=hidden;points=[[0,0.5],[1,0.5]];portConstraint=eastwest;rotatable=0;whiteSpace=wrap;html=1;" vertex="1" parent="le42ke26sphdWWmwivsr-52">
          <mxGeometry y="30" width="140" height="30" as="geometry" />
        </mxCell>
        <mxCell id="le42ke26sphdWWmwivsr-54" value="Date and time" style="text;strokeColor=none;fillColor=none;align=left;verticalAlign=middle;spacingLeft=4;spacingRight=4;overflow=hidden;points=[[0,0.5],[1,0.5]];portConstraint=eastwest;rotatable=0;whiteSpace=wrap;html=1;" vertex="1" parent="le42ke26sphdWWmwivsr-52">
          <mxGeometry y="60" width="140" height="30" as="geometry" />
        </mxCell>
        <mxCell id="le42ke26sphdWWmwivsr-55" value="Meal of the day" style="text;strokeColor=none;fillColor=none;align=left;verticalAlign=middle;spacingLeft=4;spacingRight=4;overflow=hidden;points=[[0,0.5],[1,0.5]];portConstraint=eastwest;rotatable=0;whiteSpace=wrap;html=1;" vertex="1" parent="le42ke26sphdWWmwivsr-52">
          <mxGeometry y="90" width="140" height="30" as="geometry" />
        </mxCell>
        <mxCell id="le42ke26sphdWWmwivsr-56" value="Daily log" style="swimlane;fontStyle=0;childLayout=stackLayout;horizontal=1;startSize=30;horizontalStack=0;resizeParent=1;resizeParentMax=0;resizeLast=0;collapsible=1;marginBottom=0;whiteSpace=wrap;html=1;" vertex="1" parent="1">
          <mxGeometry x="669" y="1018" width="140" height="90" as="geometry" />
        </mxCell>
        <mxCell id="le42ke26sphdWWmwivsr-57" value="log item" style="text;strokeColor=none;fillColor=none;align=left;verticalAlign=middle;spacingLeft=4;spacingRight=4;overflow=hidden;points=[[0,0.5],[1,0.5]];portConstraint=eastwest;rotatable=0;whiteSpace=wrap;html=1;" vertex="1" parent="le42ke26sphdWWmwivsr-56">
          <mxGeometry y="30" width="140" height="30" as="geometry" />
        </mxCell>
        <mxCell id="le42ke26sphdWWmwivsr-58" value="Date and time" style="text;strokeColor=none;fillColor=none;align=left;verticalAlign=middle;spacingLeft=4;spacingRight=4;overflow=hidden;points=[[0,0.5],[1,0.5]];portConstraint=eastwest;rotatable=0;whiteSpace=wrap;html=1;" vertex="1" parent="le42ke26sphdWWmwivsr-56">
          <mxGeometry y="60" width="140" height="30" as="geometry" />
        </mxCell>
        <mxCell id="le42ke26sphdWWmwivsr-59" value="To-Do list" style="swimlane;fontStyle=0;childLayout=stackLayout;horizontal=1;startSize=30;horizontalStack=0;resizeParent=1;resizeParentMax=0;resizeLast=0;collapsible=1;marginBottom=0;whiteSpace=wrap;html=1;" vertex="1" parent="1">
          <mxGeometry x="871" y="1016" width="140" height="120" as="geometry" />
        </mxCell>
        <mxCell id="le42ke26sphdWWmwivsr-60" value="item" style="text;strokeColor=none;fillColor=none;align=left;verticalAlign=middle;spacingLeft=4;spacingRight=4;overflow=hidden;points=[[0,0.5],[1,0.5]];portConstraint=eastwest;rotatable=0;whiteSpace=wrap;html=1;" vertex="1" parent="le42ke26sphdWWmwivsr-59">
          <mxGeometry y="30" width="140" height="30" as="geometry" />
        </mxCell>
        <mxCell id="le42ke26sphdWWmwivsr-61" value="Date and time" style="text;strokeColor=none;fillColor=none;align=left;verticalAlign=middle;spacingLeft=4;spacingRight=4;overflow=hidden;points=[[0,0.5],[1,0.5]];portConstraint=eastwest;rotatable=0;whiteSpace=wrap;html=1;" vertex="1" parent="le42ke26sphdWWmwivsr-59">
          <mxGeometry y="60" width="140" height="30" as="geometry" />
        </mxCell>
        <mxCell id="le42ke26sphdWWmwivsr-62" value="Location" style="text;strokeColor=none;fillColor=none;align=left;verticalAlign=middle;spacingLeft=4;spacingRight=4;overflow=hidden;points=[[0,0.5],[1,0.5]];portConstraint=eastwest;rotatable=0;whiteSpace=wrap;html=1;" vertex="1" parent="le42ke26sphdWWmwivsr-59">
          <mxGeometry y="90" width="140" height="30" as="geometry" />
        </mxCell>
        <mxCell id="le42ke26sphdWWmwivsr-63" value="calendar details" style="ellipse;shape=cloud;whiteSpace=wrap;html=1;" vertex="1" parent="1">
          <mxGeometry x="1065" y="1036" width="120" height="80" as="geometry" />
        </mxCell>
        <mxCell id="le42ke26sphdWWmwivsr-64" value="vectorized and stored locally" style="swimlane;horizontal=0;whiteSpace=wrap;html=1;" vertex="1" parent="1">
          <mxGeometry x="360" y="950" width="880" height="270" as="geometry" />
        </mxCell>
        <mxCell id="le42ke26sphdWWmwivsr-66" style="edgeStyle=orthogonalEdgeStyle;rounded=0;orthogonalLoop=1;jettySize=auto;html=1;entryX=0;entryY=0.5;entryDx=0;entryDy=0;verticalAlign=middle;startArrow=classic;startFill=1;endArrow=none;endFill=0;dashed=1;" edge="1" parent="1">
          <mxGeometry relative="1" as="geometry">
            <mxPoint x="110" y="1115" as="sourcePoint" />
            <mxPoint x="360" y="1115" as="targetPoint" />
          </mxGeometry>
        </mxCell>
        <mxCell id="le42ke26sphdWWmwivsr-73" style="edgeStyle=orthogonalEdgeStyle;rounded=0;orthogonalLoop=1;jettySize=auto;html=1;exitX=0.994;exitY=0.198;exitDx=0;exitDy=0;exitPerimeter=0;entryX=-0.002;entryY=0.369;entryDx=0;entryDy=0;entryPerimeter=0;" edge="1" parent="1" target="le42ke26sphdWWmwivsr-64">
          <mxGeometry relative="1" as="geometry">
            <mxPoint x="350" y="1050" as="targetPoint" />
            <mxPoint x="107.96000000000004" y="1050.9759999999999" as="sourcePoint" />
            <Array as="points">
              <mxPoint x="350" y="1051" />
              <mxPoint x="350" y="1050" />
            </Array>
          </mxGeometry>
        </mxCell>
        <mxCell id="le42ke26sphdWWmwivsr-76" style="edgeStyle=orthogonalEdgeStyle;rounded=0;orthogonalLoop=1;jettySize=auto;html=1;exitX=0.001;exitY=0.888;exitDx=0;exitDy=0;exitPerimeter=0;" edge="1" parent="1" source="le42ke26sphdWWmwivsr-65">
          <mxGeometry relative="1" as="geometry">
            <mxPoint x="-470" y="1167" as="targetPoint" />
          </mxGeometry>
        </mxCell>
        <mxCell id="le42ke26sphdWWmwivsr-65" value="&lt;font style=&quot;font-size: 24px;&quot;&gt;Local llm Model&lt;/font&gt;" style="rounded=0;whiteSpace=wrap;html=1;" vertex="1" parent="1">
          <mxGeometry x="-230" y="979" width="340" height="212" as="geometry" />
        </mxCell>
        <mxCell id="le42ke26sphdWWmwivsr-69" style="edgeStyle=orthogonalEdgeStyle;rounded=0;orthogonalLoop=1;jettySize=auto;html=1;entryX=-0.003;entryY=0.106;entryDx=0;entryDy=0;entryPerimeter=0;" edge="1" parent="1" target="le42ke26sphdWWmwivsr-65">
          <mxGeometry relative="1" as="geometry">
            <mxPoint x="-480" y="1001" as="sourcePoint" />
          </mxGeometry>
        </mxCell>
        <mxCell id="le42ke26sphdWWmwivsr-67" value="Actor" style="shape=umlActor;verticalLabelPosition=bottom;verticalAlign=top;html=1;outlineConnect=0;" vertex="1" parent="1">
          <mxGeometry x="-570" y="990" width="90" height="190" as="geometry" />
        </mxCell>
        <mxCell id="le42ke26sphdWWmwivsr-70" value="Query to llm (multishot prompts appended)" style="text;html=1;align=center;verticalAlign=middle;resizable=0;points=[];autosize=1;strokeColor=none;fillColor=none;" vertex="1" parent="1">
          <mxGeometry x="-490" y="1000" width="250" height="30" as="geometry" />
        </mxCell>
        <mxCell id="le42ke26sphdWWmwivsr-71" value="Get related vector at runtime" style="text;html=1;align=center;verticalAlign=middle;resizable=0;points=[];autosize=1;strokeColor=none;fillColor=none;" vertex="1" parent="1">
          <mxGeometry x="148" y="1087" width="180" height="30" as="geometry" />
        </mxCell>
        <mxCell id="le42ke26sphdWWmwivsr-72" value="&lt;font style=&quot;font-size: 40px;&quot;&gt;&amp;nbsp;Workflow&lt;/font&gt;" style="text;html=1;align=center;verticalAlign=middle;resizable=0;points=[];autosize=1;strokeColor=none;fillColor=none;" vertex="1" parent="1">
          <mxGeometry x="340" y="1270" width="200" height="60" as="geometry" />
        </mxCell>
        <mxCell id="le42ke26sphdWWmwivsr-74" value="Request vector" style="text;html=1;align=center;verticalAlign=middle;resizable=0;points=[];autosize=1;strokeColor=none;fillColor=none;" vertex="1" parent="1">
          <mxGeometry x="170" y="1020" width="100" height="30" as="geometry" />
        </mxCell>
        <mxCell id="le42ke26sphdWWmwivsr-78" value="Response" style="text;html=1;align=center;verticalAlign=middle;resizable=0;points=[];autosize=1;strokeColor=none;fillColor=none;" vertex="1" parent="1">
          <mxGeometry x="-410" y="1168" width="80" height="30" as="geometry" />
        </mxCell>
      </root>
    </mxGraphModel>
  </diagram>
</mxfile>
